<svg width="24" height="24" viewBox="0 0 24 24" fill="none" xmlns="http://www.w3.org/2000/svg">
<path d="M8.08386 7.57617L11.2147 1.21982C11.5354 0.568654 12.4638 0.568654 12.7846 1.21982L15.9154 7.57617L22.9281 8.58953C23.6463 8.69331 23.9333 9.57584 23.4136 10.0822L18.3415 15.0244L19.5389 22.0078C19.6615 22.7229 18.9106 23.2679 18.2687 22.9298L11.9996 19.6277L5.73057 22.9298C5.08835 23.2681 4.33723 22.7224 4.46049 22.007L5.66378 15.0244L0.586006 10.0826C0.0658222 9.57634 0.352725 8.69335 1.07113 8.58953L8.08386 7.57617ZM11.9996 3.58672L9.45011 8.76289C9.32264 9.02168 9.07581 9.20101 8.7903 9.24227L3.07962 10.0675L7.21461 14.0917C7.42134 14.2929 7.51562 14.5831 7.46663 14.8674L6.48676 20.5536L11.5918 17.8645C11.8471 17.7301 12.1522 17.7301 12.4074 17.8645L17.5141 20.5544L16.5389 14.8667C16.4902 14.5828 16.5844 14.2931 16.7907 14.0921L20.9209 10.0677L15.2089 9.24227C14.9234 9.20101 14.6766 9.02168 14.5491 8.76289L11.9996 3.58672Z" fill="#394566"/>
</svg>
