<svg width="14" height="14" viewBox="0 0 14 14" fill="none" xmlns="http://www.w3.org/2000/svg">
<g filter="url(#filter0_i)">
<path d="M9.23764 4.47231L7.4486 0.840106C7.26533 0.468012 6.73479 0.468012 6.55152 0.840106L4.76248 4.47231L0.755208 5.05137C0.344825 5.11067 0.180803 5.61497 0.477782 5.90434L3.37615 8.72844L2.69192 12.7189C2.62185 13.1276 3.05093 13.439 3.41774 13.2458L7.00006 11.3589L10.5824 13.2458C10.9494 13.4391 11.3786 13.1273 11.3081 12.7185L10.6205 8.72844L13.5221 5.90455C13.8194 5.61526 13.6554 5.11069 13.2449 5.05137L9.23764 4.47231Z" fill="url(#paint0_linear)"/>
</g>
<defs>
<filter id="filter0_i" x="-0.173828" y="0.561035" width="13.8478" height="13.7435" filterUnits="userSpaceOnUse" color-interpolation-filters="sRGB">
<feFlood flood-opacity="0" result="BackgroundImageFix"/>
<feBlend mode="normal" in="SourceGraphic" in2="BackgroundImageFix" result="shape"/>
<feColorMatrix in="SourceAlpha" type="matrix" values="0 0 0 0 0 0 0 0 0 0 0 0 0 0 0 0 0 0 127 0" result="hardAlpha"/>
<feOffset dx="-0.5" dy="1"/>
<feGaussianBlur stdDeviation="1"/>
<feComposite in2="hardAlpha" operator="arithmetic" k2="-1" k3="1"/>
<feColorMatrix type="matrix" values="0 0 0 0 1 0 0 0 0 1 0 0 0 0 1 0 0 0 0.4 0"/>
<feBlend mode="normal" in2="shape" result="effect1_innerShadow"/>
</filter>
<linearGradient id="paint0_linear" x1="7.00006" y1="0.561035" x2="7.00006" y2="13.3045" gradientUnits="userSpaceOnUse">
<stop stop-color="#FFE662"/>
<stop offset="1" stop-color="#FFC700"/>
</linearGradient>
</defs>
</svg>
