<svg width="89" height="89" viewBox="0 0 89 89" fill="none" xmlns="http://www.w3.org/2000/svg">
<g filter="url(#filter0_di)">
<path d="M58.1664 34.998C66.2667 34.998 72.8331 41.5644 72.8331 49.6647C72.8331 57.765 66.2667 64.3314 58.1664 64.3314C50.0662 64.3314 43.4998 57.765 43.4998 49.6647C43.4998 41.5644 50.0662 34.998 58.1664 34.998ZM43.5592 40.3295C41.8336 43.0242 40.8331 46.2276 40.8331 49.6647C40.8331 54.0122 42.4336 57.986 45.0776 61.0287C42.9563 61.4556 40.6499 61.6676 38.1664 61.6676C29.0438 61.6676 22.3159 58.8084 18.2035 53.037C17.4289 51.9499 16.9679 50.6751 16.8647 49.3514L16.8425 48.7815V46.3282C16.8425 43.1542 19.3084 40.556 22.429 40.3449L22.8395 40.3311L43.5592 40.3295ZM58.1664 40.3314L57.9267 40.3527C57.4602 40.4375 57.0783 40.7649 56.9166 41.1994L56.8547 41.425L56.8331 41.6647L56.8304 48.3314H50.1768L49.9371 48.353C49.4706 48.4375 49.0887 48.7649 48.927 49.1994L48.8651 49.425L48.8435 49.6647L48.8651 49.9044C48.9497 50.371 49.277 50.7528 49.7115 50.9146L49.9371 50.9764L50.1768 50.998H56.8304L56.8331 57.6647L56.8547 57.9044C56.9393 58.371 57.2666 58.7528 57.7011 58.9146L57.9267 58.9764L58.1664 58.998L58.4062 58.9764C58.8727 58.8919 59.2545 58.5646 59.4163 58.13L59.4782 57.9044L59.4998 57.6647L59.4971 50.998H66.1768L66.4166 50.9764C66.8831 50.8919 67.2649 50.5646 67.4268 50.13L67.4888 49.9044L67.5102 49.6647L67.4888 49.425C67.404 48.9585 67.0767 48.5766 66.6421 48.4149L66.4166 48.353L66.1768 48.3314H59.4971L59.4998 41.6647L59.4782 41.425C59.3936 40.9585 59.0663 40.5766 58.6317 40.4147L58.4062 40.3527L58.1664 40.3314ZM38.1664 8.34375C45.5302 8.34375 51.4998 14.3133 51.4998 21.6771C51.4998 29.0409 45.5302 35.0103 38.1664 35.0103C30.8026 35.0103 24.8331 29.0409 24.8331 21.6771C24.8331 14.3133 30.8026 8.34375 38.1664 8.34375Z" fill="url(#paint0_linear)"/>
</g>
<defs>
<filter id="filter0_di" x="0.842529" y="0.34375" width="87.9906" height="87.9876" filterUnits="userSpaceOnUse" color-interpolation-filters="sRGB">
<feFlood flood-opacity="0" result="BackgroundImageFix"/>
<feColorMatrix in="SourceAlpha" type="matrix" values="0 0 0 0 0 0 0 0 0 0 0 0 0 0 0 0 0 0 127 0"/>
<feOffset dy="8"/>
<feGaussianBlur stdDeviation="8"/>
<feColorMatrix type="matrix" values="0 0 0 0 0.292235 0 0 0 0 0.901961 0 0 0 0 0.239216 0 0 0 0.25 0"/>
<feBlend mode="normal" in2="BackgroundImageFix" result="effect1_dropShadow"/>
<feBlend mode="normal" in="SourceGraphic" in2="effect1_dropShadow" result="shape"/>
<feColorMatrix in="SourceAlpha" type="matrix" values="0 0 0 0 0 0 0 0 0 0 0 0 0 0 0 0 0 0 127 0" result="hardAlpha"/>
<feOffset/>
<feGaussianBlur stdDeviation="1.5"/>
<feComposite in2="hardAlpha" operator="arithmetic" k2="-1" k3="1"/>
<feColorMatrix type="matrix" values="0 0 0 0 1 0 0 0 0 1 0 0 0 0 1 0 0 0 0.4 0"/>
<feBlend mode="normal" in2="shape" result="effect2_innerShadow"/>
</filter>
<linearGradient id="paint0_linear" x1="44.8378" y1="8.34375" x2="44.8378" y2="64.3314" gradientUnits="userSpaceOnUse">
<stop stop-color="#51EE87" stop-opacity="0.7"/>
<stop offset="1" stop-color="#2AB055"/>
</linearGradient>
</defs>
</svg>
