<svg width="24" height="24" viewBox="0 0 24 24" fill="none" xmlns="http://www.w3.org/2000/svg">
<g clip-path="url(#clip0)">
<path d="M18.3225 23.9998L22.7812 19.4824H18.3225V23.9998Z" fill="url(#paint0_linear)"/>
<path d="M12 5.7413C13.5886 5.7413 14.8809 4.4535 14.8809 2.87062C14.8809 1.2878 13.5886 0 12 0C10.4115 0 9.11914 1.2878 9.11914 2.87062C9.11914 4.45355 10.4115 5.7413 12 5.7413Z" fill="url(#paint1_linear)"/>
<path d="M20.0859 2.51953H16.2727C16.2825 2.63531 16.2872 2.7525 16.2872 2.87109C16.2872 5.22938 14.3639 7.14797 12 7.14797C9.63609 7.14797 7.71281 5.22938 7.71281 2.87109C7.71281 2.7525 7.7175 2.63531 7.72734 2.51953H3.91406C2.42766 2.51953 1.21875 3.72516 1.21875 5.20687V21.3131C1.21875 22.7948 2.42766 24.0005 3.91406 24.0005H16.9341V18.78C16.9341 18.3919 17.2491 18.0769 17.6372 18.0769H22.7812V5.20687C22.7812 3.72516 21.5723 2.51953 20.0859 2.51953ZM14.0644 18.396H5.71683C5.32852 18.396 5.0137 18.0812 5.0137 17.6929C5.0137 17.3046 5.32852 16.9898 5.71683 16.9898H14.0644C14.4527 16.9898 14.7675 17.3046 14.7675 17.6929C14.7675 18.0812 14.4527 18.396 14.0644 18.396ZM18.2832 15.5835H5.71683C5.32852 15.5835 5.0137 15.2687 5.0137 14.8804C5.0137 14.4921 5.32852 14.1773 5.71683 14.1773H18.2831C18.6714 14.1773 18.9862 14.4921 18.9862 14.8804C18.9862 15.2687 18.6715 15.5835 18.2832 15.5835ZM5.0137 12.0679C5.0137 11.6796 5.32852 11.3648 5.71683 11.3648H16.8769C17.2652 11.3648 17.58 11.6796 17.58 12.0679C17.58 12.4562 17.2652 12.771 16.8769 12.771H5.71683C5.32852 12.771 5.0137 12.4563 5.0137 12.0679ZM18.2832 9.95855H5.71683C5.32852 9.95855 5.0137 9.64373 5.0137 9.25542C5.0137 8.86711 5.32852 8.5523 5.71683 8.5523H18.2831C18.6714 8.5523 18.9862 8.86711 18.9862 9.25542C18.9862 9.64373 18.6715 9.95855 18.2832 9.95855Z" fill="url(#paint2_linear)"/>
</g>
<defs>
<linearGradient id="paint0_linear" x1="20.5519" y1="19.4824" x2="20.5519" y2="23.9998" gradientUnits="userSpaceOnUse">
<stop stop-color="#1E88C7"/>
<stop offset="1" stop-color="#1E88C7" stop-opacity="0.49"/>
</linearGradient>
<linearGradient id="paint1_linear" x1="12" y1="0" x2="12" y2="5.7413" gradientUnits="userSpaceOnUse">
<stop stop-color="#1E88C7"/>
<stop offset="1" stop-color="#1E88C7" stop-opacity="0.49"/>
</linearGradient>
<linearGradient id="paint2_linear" x1="12" y1="2.51953" x2="12" y2="24.0005" gradientUnits="userSpaceOnUse">
<stop stop-color="#1E88C7"/>
<stop offset="1" stop-color="#1E88C7" stop-opacity="0.49"/>
</linearGradient>
<clipPath id="clip0">
<rect width="24" height="24" fill="white"/>
</clipPath>
</defs>
</svg>
