<svg width="112" height="57" viewBox="0 0 112 57" fill="none" xmlns="http://www.w3.org/2000/svg">
<path d="M78.6154 57L63.1795 46.9487L81.1282 19.6667C76.1026 18.7094 71.9145 16.1966 68.5641 12.1282C64.9744 8.05983 63.1795 3.15385 63.1795 -2.58974C63.1795 -9.29059 65.5726 -15.0342 70.359 -19.8205C74.906 -24.6068 80.6496 -27 87.5898 -27C94.5299 -26.7607 100.393 -24.2479 105.179 -19.4615C109.727 -14.6752 112 -8.81196 112 -1.8718C112 1.47863 111.402 4.94871 110.205 8.53845C109.009 12.1282 107.094 15.718 104.462 19.3077L78.6154 57ZM15.4359 57L-6.75068e-06 46.9487L17.9487 19.6667C12.9231 18.7094 8.73503 16.1966 5.38461 12.1282C1.79487 8.05982 -2.92201e-06 3.15384 -2.41989e-06 -2.58975C-1.83409e-06 -9.2906 2.39316 -15.0342 7.1795 -19.8205C11.7265 -24.6068 17.4701 -27 24.4103 -27C31.3504 -26.7607 37.2137 -24.2479 42 -19.4615C46.547 -14.6752 48.8205 -8.81196 48.8205 -1.8718C48.8205 1.47862 48.2222 4.94871 47.0256 8.53845C45.8291 12.1282 43.9145 15.7179 41.2821 19.3077L15.4359 57Z" fill="#F5F8FA"/>
</svg>
